# xmcd CD database file
#
# Track frame offsets:
#	150
#	13221
#	27287
#	41437
#	55349
#	69203
#	81248
#	93622
#	107390
#	121261
#	132952
#	146983
#	159755
#	173054
#	188297
#	204417
#	219908
#	235341
#
# Disc length: 3319 seconds
#
# Revision: 0
# Processed by: cddbd v1.5.2PL0 Copyright (c) Steve Scherf et al.
# Submitted via: CDex 1.70beta2
#
DISCID=e90cf512
DTITLE=Various Artist - Jazz Roads CD366 - Bebop - Coleman Hawkins - Godfather of Bop (1946-49)
DYEAR=2008
DGENRE=Jazz
TTITLE0=Coleman Hawkins' 52nd Street All Stars - Say It Isn't  So
TTITLE1=Coleman Hawkins' 52nd Street All Stars - Spotlite
TTITLE2=Coleman Hawkins' 52nd Street All Stars - Low Flame
TTITLE3=Coleman Hawkins' 52nd Street All Stars - Allen's Alley
TTITLE4=Coleman Hawkins And Orchestra - I Mean You
TTITLE5=Coleman Hawkins And Orchestra - Bean And The Boys (1)
TTITLE6=Coleman Hawkins And Orchestra - Bean And The Boys (2)
TTITLE7=Coleman Hawkins And Orchestra - You Go To My Head
TTITLE8=Coleman Hawkins And Orchestra - Cocktails For Two
TTITLE9=Coleman Hawkins All Stars - Bean-A-Re-Bop
TTITLE10=Coleman Hawkins All Stars - Isn't It Romantic
TTITLE11=Coleman Hawkins All Stars - The Way You Look Tonight
TTITLE12=Coleman Hawkins All Stars - Phantomesque
TTITLE13=Coleman Hawkins And His All Stars - The Big Head
TTITLE14=Coleman Hawkins And His All Stars - Skippy
TTITLE15=Coleman Hawkins And His All Stars - Platinum Love (1)
TTITLE16=Coleman Hawkins And His All Stars - Platinum Love (2)
TTITLE17=Coleman Hawkins And His All Stars - There's A Small Hotel
EXTD=YEAR: 2008
EXTT0=
EXTT1=
EXTT2=
EXTT3=
EXTT4=
EXTT5=
EXTT6=
EXTT7=
EXTT8=
EXTT9=
EXTT10=
EXTT11=
EXTT12=
EXTT13=
EXTT14=
EXTT15=
EXTT16=
EXTT17=
PLAYORDER=
